Coordinates
version=1
nRows=34
nColumns=19
inDegrees=yes

Units are S.I. units (second, meters, Newtons, ...)
If the header above contains a line with 'inDegrees', this indicates whether rotational values are in degrees (yes) or radians (no).

endheader
time	pelvis_obliquity	pelvis_rotation	pelvis_tilt	pelvis_to_ground_tx	pelvis_to_ground_ty	pelvis_to_ground_tz	left_hip_abduction	left_hip_rotation	left_hip_flexion	left_knee_flexion	left_ankle_flexion	left_subtalar_angle	right_hip_abduction	right_hip_rotation	right_hip_flexion	right_knee_flexion	right_ankle_flexion	right_subtalar_angle
      3.47000000	     88.39632991	     16.95122235	     -7.35277020	      0.84447090	     -0.66030548	      0.61973533	     -3.18107295	    -13.32625073	     25.93685875	    -36.84425472	    -18.41519028	    -14.94477384	      1.53781389	     14.16538788	     12.84985090	     -5.99533842	    -10.38917911	    -13.95788400
      3.48000000	     88.14983511	     16.23803180	     -6.83314657	      0.85398229	     -0.66062277	      0.61965473	     -3.05684522	    -13.19363979	     28.04164784	    -37.38937207	    -17.77632344	    -14.82260896	      2.15856230	     14.63878107	     11.30073035	     -5.32540187	    -11.03863760	    -13.74077158
      3.49000000	     87.79632945	     15.39317049	     -6.36485066	      0.86336629	     -0.66095942	      0.61886888	     -2.66156754	    -13.04327708	     30.20452912	    -37.71180267	    -17.64920120	    -14.81702681	      2.86026034	     15.17568058	      9.93414556	     -4.92364597	    -10.98760880	    -13.46058311
      3.50000000	     87.32384674	     14.48785366	     -5.91019423	      0.87273150	     -0.66134099	      0.61741756	     -1.97240815	    -12.93360802	     32.31687688	    -37.74794040	    -17.48374567	    -14.82927594	      3.69701112	     15.65012703	      8.64363774	     -4.70773459	    -10.89206504	    -13.17086106
      3.51000000	     86.76995900	     13.53878264	     -5.50454673	      0.88217532	     -0.66174824	      0.61536723	     -1.02229969	    -12.87500938	     34.32687081	    -37.44355591	    -17.33241119	    -14.86252123	      4.63719044	     16.05418368	      7.40682515	     -4.62336379	    -10.68622796	    -12.90831718
      3.52000000	     86.14270140	     12.55410337	     -5.15233653	      0.89176062	     -0.66217893	      0.61279124	      0.16934982	    -12.83958449	     36.16646556	    -36.76346597	    -17.24747261	    -14.93852307	      5.67479030	     16.38752278	      6.21837415	     -4.67677977	    -10.34510392	    -12.68537306
      3.53000000	     85.48523016	     11.55350379	     -4.87577383	      0.90161897	     -0.66259250	      0.60977216	      1.53675038	    -12.82768097	     37.77994715	    -35.70714778	    -17.26121483	    -15.08033453	      6.75532583	     16.60236230	      5.04012917	     -4.78097088	     -9.86171017	    -12.50368792
      3.54000000	     84.81849968	     10.56600385	     -4.67061302	      0.91182129	     -0.66297872	      0.60638699	      3.03696267	    -12.88712361	     39.10744419	    -34.30838656	    -17.40367185	    -15.31371048	      7.85015766	     16.70292646	      3.86676872	     -4.93623723	     -9.24428520	    -12.35415659
      3.55000000	     84.17524739	      9.61122029	     -4.53703419	      0.92242883	     -0.66330369	      0.60272504	      4.60432526	    -13.05007544	     40.11427016	    -32.63923173	    -17.67023824	    -15.63133464	      8.90518830	     16.68936802	      2.70945578	     -5.14876185	     -8.58400882	    -12.22877480
      3.56000000	     83.59416641	      8.71224067	     -4.48894075	      0.93350463	     -0.66356568	      0.59888073	      6.16630890	    -13.33516225	     40.80449656	    -30.79948820	    -18.01618603	    -16.02769713	      9.86302736	     16.57935550	      1.59106294	     -5.40400974	     -7.95490146	    -12.11170496
      3.57000000	     83.06374569	      7.87093200	     -4.53878562	      0.94503782	     -0.66375508	      0.59491377	      7.67646849	    -13.67846424	     41.25167548	    -28.98125371	    -18.49049762	    -16.67086928	     10.69211606	     16.34915682	      0.60213712	     -5.77837509	     -7.33304627	    -11.95079151
      3.58000000	     82.70570135	      7.12617062	     -4.76053235	      0.95705011	     -0.66382476	      0.59100767	      9.02110203	    -14.21689429	     41.49485177	    -27.20184956	    -18.55426443	    -16.77342437	     11.28340741	     16.20714243	     -0.23612709	     -6.16050491	     -7.20145464	    -11.88135882
      3.59000000	     82.44035375	      6.46088005	     -4.81439297	      0.96955526	     -0.66382422	      0.58718045	     10.07988298	    -14.74474615	     41.29637001	    -25.72019422	    -18.80929997	    -17.45143020	     11.80635490	     16.07356445	     -1.22070769	     -6.60854562	     -6.95498044	    -11.65363101
      3.60000000	     82.40506004	      5.90145415	     -5.19946618	      0.98239088	     -0.66367637	      0.58362408	     10.86283047	    -15.35363264	     41.18220603	    -24.50262243	    -18.76174552	    -17.61194265	     11.94776032	     16.00737680	     -1.73257150	     -7.20613692	     -7.02684549	    -11.55464427
      3.61000000	     82.53400143	      5.49473622	     -5.52775241	      0.99554343	     -0.66344973	      0.58034328	     11.28438169	    -15.98678761	     40.84957670	    -23.68992804	    -18.54304378	    -18.19266534	     11.85856392	     15.72974391	     -2.11060198	     -8.01390769	     -7.52799456	    -11.22376809
      3.62000000	     82.91272568	      5.17928942	     -5.96122504	      1.00894015	     -0.66307046	      0.57752902	     11.28329150	    -16.54516071	     40.41706607	    -23.14737116	    -18.20291503	    -18.54474821	     11.47985048	     15.61342299	     -2.25708012	     -8.91439378	     -8.20233750	    -10.93279278
      3.63000000	     83.51002431	      5.01616382	     -6.40612938	      1.02248250	     -0.66256910	      0.57518654	     10.89393443	    -17.07079350	     39.86387384	    -22.87977639	    -17.69540869	    -18.76035099	     10.84207993	     15.41554280	     -2.18902855	     -9.99310289	     -9.19447867	    -10.62076277
      3.64000000	     84.30761644	      5.00503208	     -6.85339414	      1.03606504	     -0.66196537	      0.57339179	     10.17828008	    -17.54890050	     39.17481387	    -22.74138884	    -17.08561105	    -18.80145613	      9.98760634	     15.15457191	     -1.91137793	    -11.24246141	    -10.43298011	    -10.30615397
      3.65000000	     85.25894466	      5.12718183	     -7.30441485	      1.04962659	     -0.66126135	      0.57221682	      9.21214163	    -17.91966856	     38.35670669	    -22.62140870	    -16.16184889	    -18.49062817	      9.04242214	     15.03478006	     -1.50498838	    -12.53734134	    -12.29663650	     -9.81454783
      3.66000000	     86.37607669	      5.41986167	     -7.74182737	      1.06303462	     -0.66043993	      0.57164557	      8.06694540	    -18.33867639	     37.39862852	    -22.39430520	    -15.40009598	    -17.92052636	      7.88758861	     14.63995591	     -0.84905325	    -14.08289965	    -13.98343895	     -9.51445406
      3.67000000	     87.58409080	      5.85187722	     -8.14224865	      1.07621748	     -0.65952990	      0.57169681	      6.83027658	    -18.74523724	     36.28242635	    -21.98052659	    -14.72159729	    -17.14339468	      6.65231236	     14.10531851	     -0.01868085	    -15.81520730	    -15.61039229	     -9.25937841
      3.68000000	     88.81691291	      6.38712313	     -8.46027374	      1.08912789	     -0.65853650	      0.57233498	      5.53990545	    -19.05007229	     34.98568124	    -21.36954582	    -14.09307617	    -16.08615174	      5.40623845	     13.42878784	      0.92946588	    -17.72912092	    -17.13927380	     -9.07439516
      3.69000000	     90.06326265	      7.05136035	     -8.73925416	      1.10170374	     -0.65747075	      0.57356040	      4.32633899	    -19.55359990	     33.51121888	    -20.42703277	    -13.82064670	    -15.52459979	      4.13022610	     12.49894653	      2.04654324	    -19.82798611	    -17.95768060	     -9.16799038
      3.70000000	     91.23298152	      7.73337746	     -9.09868103	      1.11390230	     -0.65632514	      0.57533527	      3.21870002	    -19.96949634	     32.04854087	    -19.25642951	    -13.41009455	    -13.99785644	      2.92997480	     11.63042671	      3.40870090	    -22.02130457	    -19.20474455	     -8.92538821
      3.71000000	     92.28773942	      8.46256912	     -9.32949759	      1.12574471	     -0.65515078	      0.57752799	      2.21441705	    -20.46042273	     30.36054742	    -17.84256062	    -13.22985577	    -13.01969541	      1.81624757	     10.51213180	      4.84345827	    -24.36456111	    -19.56273972	     -9.12873157
      3.72000000	     93.16887044	      9.17686680	     -9.47928115	      1.13721177	     -0.65394845	      0.58004717	      1.33140905	    -20.88913037	     28.55189497	    -16.28750383	    -13.17655402	    -12.54366142	      0.83350718	      9.25893309	      6.39163040	    -26.80385455	    -19.69705559	     -9.43465508
      3.73000000	     93.89712084	      9.85506840	     -9.64791731	      1.14832975	     -0.65275234	      0.58283676	      0.59213671	    -21.36133629	     26.70382583	    -14.56447804	    -13.42796650	    -11.72892975	     -0.02911132	      7.97962875	      8.12728674	    -29.27035579	    -19.24211258	     -9.79445348
      3.74000000	     94.41171696	     10.49125830	     -9.75253096	      1.15910907	     -0.65159534	      0.58577337	      0.01804704	    -21.85349212	     24.77698490	    -12.76021031	    -13.61800439	    -11.39892111	     -0.70878538	      6.65127827	      9.96821322	    -31.71533967	    -18.67683269	    -10.26113041
      3.75000000	     94.71150810	     11.11461809	     -9.80283989	      1.16956162	     -0.65051616	      0.58868985	     -0.41628539	    -22.24465374	     22.87744095	    -11.03796432	    -13.85210531	    -11.24387952	     -1.21293791	      5.16527660	     11.93719609	    -34.14081775	    -17.99447120	    -10.78130654
      3.76000000	     94.85813148	     11.59851635	     -9.77670489	      1.17969299	     -0.64947760	      0.59148963	     -0.79630697	    -22.46017547	     20.95259582	     -9.39251251	    -14.56276264	    -11.46011724	     -1.58476169	      3.83028767	     14.01733857	    -36.56130878	    -16.39347613	    -11.40873066
      3.77000000	     94.84568000	     12.08034661	     -9.72125440	      1.18954341	     -0.64855697	      0.59409366	     -1.02769473	    -22.68819516	     19.09583155	     -7.84449791	    -15.08129228	    -11.79781872	     -1.80238590	      2.41845083	     16.21764688	    -38.89144835	    -15.08490598	    -11.88121962
      3.78000000	     94.71630983	     12.54709380	     -9.65606776	      1.19911573	     -0.64775634	      0.59641232	     -1.12993333	    -22.92762966	     17.34465010	     -6.41902564	    -15.33194291	    -11.90577262	     -1.89038344	      1.01850651	     18.55426189	    -41.13967473	    -14.14664170	    -12.31582212
      3.79000000	     94.52628605	     12.90953347	     -9.48109099	      1.20842173	     -0.64701902	      0.59829984	     -1.24183463	    -22.80435084	     15.65911871	     -5.25084390	    -15.97507921	    -12.37425400	     -1.92887975	     -0.28722718	     20.94829391	    -43.37519327	    -12.38952380	    -12.65487277
      3.80000000	     94.31523459	     13.31241989	     -9.28790093	      1.21748948	     -0.64639238	      0.59975838	     -1.26503154	    -22.81980469	     14.07992624	     -4.22185927	    -16.33878286	    -12.59236711	     -1.92186699	     -1.63734844	     23.43583870	    -45.53613390	    -11.11740158	    -12.80902358
